<?xml version="1.0" encoding="utf-8"?>
<!-- Generator: Adobe Illustrator 12.0.0, SVG Export Plug-In . SVG Version: 6.00 Build 51448)  -->
<!DOCTYPE svg PUBLIC "-//W3C//DTD SVG 1.1//EN" "http://www.w3.org/Graphics/SVG/1.1/DTD/svg11.dtd" [
	<!ENTITY ns_svg "http://www.w3.org/2000/svg">
	<!ENTITY ns_xlink "http://www.w3.org/1999/xlink">
]>
<svg  version="1.1" id="Layer_1" xmlns="&ns_svg;" xmlns:xlink="&ns_xlink;" width="169" height="30" viewBox="0 0 169 30"
	 overflow="visible" enable-background="new 0 0 169 30" xml:space="preserve">
<path opacity="0.99" fill="#54B948" d="M21.199,19.729L9.061-0.858H-1v29.191h7.463V8.317l12.044,20.016h5.384L35.936,8.317v20.016
	h7.463V-0.858H33.338L21.199,19.729z M46.941,28.285h7.463V-0.858h-7.463V28.285z M79.012-0.858H57.994v29.191h21.019
	c7.51,0,14.076-4.659,14.076-14.596S86.475-0.858,79.012-0.858z M65.457,10.6c0,0.808-0.425,1.521-1.086,1.901
	c-0.236,0.143-0.378,0.38-0.378,0.618v7.037c0,0.428-0.331,0.713-0.708,0.713c-0.425,0-0.708-0.333-0.708-0.713v-7.037
	c0-0.285-0.142-0.523-0.378-0.618c-0.661-0.38-1.086-1.093-1.086-1.901V8.413c0-1.236,0.992-2.187,2.172-2.187
	c1.181,0,2.173,0.998,2.173,2.187V10.6z M74.572,22.058c-4.582,0-8.266-3.708-8.266-8.32c0-4.612,3.684-8.32,8.266-8.32
	c4.582,0,8.266,3.708,8.266,8.32C82.838,18.302,79.107,22.058,74.572,22.058z M88.176,11.313c0,0.428-0.33,0.713-0.709,0.713
	c-0.377,0-0.708,0.333-0.708,0.713v7.37c0,0.428-0.331,0.713-0.708,0.713c-0.426,0-0.709-0.333-0.709-0.713v-7.322
	c0-0.428-0.33-0.713-0.709-0.713c-0.425,0-0.708-0.333-0.708-0.713V6.796c0-0.238,0.188-0.476,0.472-0.476s0.473,0.19,0.473,0.476
	V10.6h0.803V6.796c0-0.238,0.189-0.476,0.473-0.476c0.236,0,0.473,0.19,0.473,0.476V10.6h0.803V6.796
	c0-0.238,0.189-0.476,0.473-0.476s0.472,0.19,0.472,0.476v4.517H88.176z M149.578,10.694c-8.454-0.523-10.202-0.903-10.202-3.185
	c0-2.187,1.748-2.853,9.069-2.853c7.746,0,10.91,0.809,10.91,3.994h7.463c0-7.227-6.612-9.984-17.57-9.984
	c-10.864,0-17.335,2.044-17.335,8.463c0,6.561,5.007,8.558,17.618,9.129c9.398,0.475,11.053,0.855,11.053,3.279
	c0,2.283-2.361,3.186-10.203,3.186c-9.445,0-11.902-1.426-11.902-4.516h-7.463c0,8.414,7.086,10.459,18.94,10.459
	c10.722,0,18.043-1.568,18.043-9.366C168.094,11.978,161.009,11.36,149.578,10.694z M105.793-0.858L90.867,28.333h8.219l3.118-6.228
	h17.334l3.118,6.228h8.218L115.854-0.858H105.793z M104.896,16.494L110.8,4.656l5.857,11.838H104.896z"/>
<text transform="matrix(1.0353 0 0 1 0.333 64.834)" font-family="'Tahoma-Bold'" font-size="37.5412">MAUKAS</text>
<path opacity="0.99" fill="#FFFFFF" d="M69.79,46.6c0,0.809-0.425,1.521-1.086,1.901c-0.236,0.143-0.378,0.38-0.378,0.618v7.037
	c0,0.428-0.331,0.713-0.708,0.713c-0.425,0-0.708-0.333-0.708-0.713v-7.037c0-0.285-0.142-0.523-0.378-0.618
	c-0.661-0.38-1.086-1.093-1.086-1.901v-2.188c0-1.236,0.992-2.187,2.172-2.187c1.181,0,2.173,0.998,2.173,2.187"/>
<path opacity="0.99" fill="#FFFFFF" d="M86.226,47.547c0,0.428-0.33,0.713-0.709,0.713c-0.377,0-0.708,0.333-0.708,0.713v7.37
	c0,0.428-0.331,0.713-0.708,0.713c-0.426,0-0.709-0.333-0.709-0.713v-7.321c0-0.429-0.33-0.714-0.709-0.714
	c-0.425,0-0.708-0.333-0.708-0.713V43.03c0-0.237,0.188-0.476,0.472-0.476s0.473,0.19,0.473,0.476v3.804h0.803V43.03
	c0-0.237,0.189-0.476,0.473-0.476c0.236,0,0.473,0.19,0.473,0.476v3.804h0.803V43.03c0-0.237,0.189-0.476,0.473-0.476
	s0.472,0.19,0.472,0.476v4.517H86.226z"/>
</svg>
